<svg width="123" height="21" viewBox="0 0 123 21" fill="none" xmlns="http://www.w3.org/2000/svg">
<path d="M16.27 0.351562C7.53703 0.351562 0.457031 4.89556 0.457031 10.5006C0.457031 16.1056 7.53703 20.6496 16.27 20.6496C25.003 20.6496 32.083 16.1006 32.083 10.5006C32.083 4.90056 24.999 0.351562 16.27 0.351562ZM24.581 9.81356C23.294 12.2276 20.032 13.7866 16.27 13.7866C12.509 13.7866 9.24703 12.2266 7.96003 9.81456C7.87649 9.65588 7.82667 9.48163 7.81373 9.30276C7.80079 9.1239 7.82499 8.94429 7.88482 8.77523C7.94464 8.60617 8.0388 8.45132 8.16137 8.32041C8.28394 8.18951 8.43227 8.08537 8.59703 8.01456C8.90304 7.89483 9.24236 7.89162 9.55058 8.00554C9.8588 8.11946 10.1145 8.34259 10.269 8.63256C10.297 8.68256 10.326 8.73256 10.357 8.78056C10.4398 8.9 10.549 8.99872 10.6762 9.06903C10.8034 9.13934 10.945 9.17934 11.0902 9.18592C11.2354 9.1925 11.3801 9.16548 11.5131 9.10697C11.6461 9.04845 11.7638 8.96002 11.857 8.84856C12.447 8.29586 13.1417 7.86695 13.9002 7.58716C14.6586 7.30738 15.4655 7.18238 16.273 7.21956C17.0806 7.18238 17.8874 7.30738 18.6459 7.58716C19.4043 7.86695 20.0991 8.29586 20.689 8.84856C20.7823 8.96002 20.9 9.04845 21.033 9.10697C21.166 9.16548 21.3107 9.1925 21.4559 9.18592C21.601 9.17934 21.7427 9.13934 21.8699 9.06903C21.997 8.99872 22.1063 8.9 22.189 8.78056C22.22 8.73156 22.25 8.68056 22.277 8.63256C22.4316 8.34233 22.6874 8.11897 22.9958 8.00486C23.3042 7.89076 23.6438 7.89385 23.95 8.01356C24.1143 8.08495 24.262 8.1895 24.3839 8.32066C24.5059 8.45182 24.5994 8.60676 24.6586 8.77576C24.7179 8.94476 24.7416 9.12418 24.7282 9.30276C24.7149 9.48135 24.6648 9.65525 24.581 9.81356Z" fill="#FF3363"/>
<path d="M97.8388 5.40039C96.8376 5.40039 95.8461 5.59762 94.921 5.98083C93.996 6.36403 93.1555 6.9257 92.4475 7.63376C91.7395 8.34182 91.178 9.1824 90.7949 10.1075C90.4118 11.0326 90.2147 12.0241 90.2148 13.0254C90.2148 15.0474 91.0181 16.9866 92.4479 18.4164C93.8776 19.8461 95.8168 20.6494 97.8388 20.6494H103.123C103.43 20.6494 103.734 20.5889 104.018 20.4713C104.302 20.3537 104.56 20.1813 104.777 19.964C104.995 19.7467 105.167 19.4888 105.285 19.2049C105.402 18.921 105.463 18.6167 105.463 18.3094V13.0254C105.463 12.0241 105.266 11.0326 104.883 10.1075C104.5 9.1824 103.938 8.34182 103.23 7.63376C102.522 6.9257 101.682 6.36403 100.757 5.98083C99.8316 5.59762 98.8401 5.40039 97.8388 5.40039ZM100.139 14.3004C100.139 14.4349 100.113 14.5682 100.061 14.6926C100.01 14.8169 99.9344 14.9299 99.8393 15.0251C99.7442 15.1203 99.6312 15.1958 99.5069 15.2473C99.3826 15.2989 99.2494 15.3254 99.1148 15.3254H97.8388C97.2288 15.3254 96.6438 15.0831 96.2125 14.6517C95.7812 14.2204 95.5388 13.6354 95.5388 13.0254C95.5388 12.4154 95.7812 11.8304 96.2125 11.399C96.6438 10.9677 97.2288 10.7254 97.8388 10.7254C98.4488 10.7254 99.0339 10.9677 99.4652 11.399C99.8965 11.8304 100.139 12.4154 100.139 13.0254V14.3004Z" fill="black"/>
<path d="M50.3458 0.351563C49.9961 0.351431 49.6498 0.420189 49.3268 0.553909C49.0037 0.687628 48.7101 0.883688 48.4628 1.13089C48.2155 1.37809 48.0193 1.67159 47.8855 1.99463C47.7517 2.31766 47.6828 2.6639 47.6828 3.01356V4.22256C47.6829 4.3773 47.6525 4.53054 47.5934 4.67352C47.5342 4.8165 47.4474 4.94641 47.338 5.05583C47.2286 5.16524 47.0987 5.25201 46.9557 5.31116C46.8127 5.37031 46.6595 5.40069 46.5048 5.40056H45.3838C44.3825 5.40056 43.391 5.5978 42.466 5.981C41.5409 6.36421 40.7004 6.92587 39.9924 7.63393C39.2845 8.34199 38.7229 9.18258 38.3398 10.1077C37.9567 11.0328 37.7596 12.0243 37.7598 13.0256C37.7598 15.0476 38.563 16.9868 39.9928 18.4165C41.4226 19.8463 43.3618 20.6496 45.3838 20.6496H47.5168C47.5728 20.6496 47.6278 20.6426 47.6828 20.6416V20.6496H49.5678C50.4801 20.6496 51.3551 20.2871 52.0002 19.642C52.6453 18.9969 53.0078 18.1219 53.0078 17.2096V3.00956C53.0067 2.30425 52.7258 1.62819 52.2267 1.12983C51.7276 0.631473 51.0511 0.351562 50.3458 0.351563ZM47.6828 13.9246C47.6828 14.2959 47.5353 14.652 47.2727 14.9145C47.0102 15.1771 46.6541 15.3246 46.2828 15.3246H45.3828C44.7728 15.3246 44.1878 15.0822 43.7564 14.6509C43.3251 14.2196 43.0828 13.6346 43.0828 13.0246C43.0828 12.4146 43.3251 11.8295 43.7564 11.3982C44.1878 10.9669 44.7728 10.7246 45.3828 10.7246H46.2828C46.6541 10.7246 47.0102 10.8721 47.2727 11.1346C47.5353 11.3972 47.6828 11.7533 47.6828 12.1246V13.9246Z" fill="black"/>
<path d="M62.8681 5.40039C60.846 5.40066 58.9068 6.20412 57.4771 7.63406C56.0473 9.06399 55.2441 11.0033 55.2441 13.0254C55.2444 15.0473 56.0477 16.9864 57.4774 18.4161C58.9072 19.8458 60.8462 20.6491 62.8681 20.6494C64.8902 20.6494 66.8295 19.8462 68.2595 18.4164C69.6894 16.9867 70.4929 15.0475 70.4931 13.0254C70.4931 12.0241 70.2959 11.0325 69.9127 10.1074C69.5295 9.18232 68.9679 8.34175 68.2598 7.6337C67.5518 6.92565 66.7112 6.364 65.7861 5.98081C64.861 5.59762 63.8695 5.40039 62.8681 5.40039ZM62.8681 15.3244C62.2581 15.3244 61.6731 15.0821 61.2418 14.6507C60.8105 14.2194 60.5681 13.6344 60.5681 13.0244C60.5681 12.4144 60.8105 11.8294 61.2418 11.398C61.6731 10.9667 62.2581 10.7244 62.8681 10.7244C63.4781 10.7244 64.0632 10.9667 64.4945 11.398C64.9258 11.8294 65.1681 12.4144 65.1681 13.0244C65.1681 13.6344 64.9258 14.2194 64.4945 14.6507C64.0632 15.0821 63.4781 15.3244 62.8681 15.3244Z" fill="black"/>
<path d="M82.0775 5.40087C80.8935 5.40109 79.7207 5.62853 78.6225 6.07087C78.4421 6.14127 78.243 6.14707 78.0589 6.08727C77.8748 6.02748 77.717 5.90579 77.6125 5.74287C77.3452 5.33673 76.9716 5.01174 76.5324 4.80331C76.0931 4.59489 75.6051 4.51103 75.1215 4.56087C74.4649 4.6542 73.8633 4.9789 73.4249 5.47648C72.9866 5.97406 72.7403 6.61181 72.7305 7.27487V18.6069C72.7305 19.1485 72.9456 19.668 73.3285 20.0511C73.7114 20.4342 74.2308 20.6496 74.7725 20.6499H76.0125C76.5541 20.6496 77.0735 20.4342 77.4564 20.0511C77.8394 19.668 78.0545 19.1485 78.0545 18.6069V14.0259C78.046 13.0988 78.4023 12.2056 79.0465 11.5389C80.6775 9.88587 82.6535 11.0159 82.6535 12.6059V18.6059C82.6535 18.8742 82.7063 19.1398 82.809 19.3877C82.9117 19.6356 83.0621 19.8608 83.2518 20.0505C83.4416 20.2402 83.6668 20.3907 83.9146 20.4934C84.1625 20.596 84.4282 20.6489 84.6965 20.6489H85.9355C86.2038 20.6489 86.4694 20.596 86.7173 20.4934C86.9652 20.3907 87.1904 20.2402 87.3801 20.0505C87.5698 19.8608 87.7203 19.6356 87.823 19.3877C87.9256 19.1398 87.9785 18.8742 87.9785 18.6059V11.3009C87.9785 10.526 87.8258 9.75869 87.5293 9.04281C87.2327 8.32692 86.798 7.67646 86.25 7.12859C85.7021 6.58071 85.0515 6.14614 84.3356 5.84969C83.6197 5.55325 82.8524 5.40074 82.0775 5.40087Z" fill="black"/>
<path d="M69.8889 6.03556C71.4585 6.03556 72.7309 4.76316 72.7309 3.19356C72.7309 1.62397 71.4585 0.351562 69.8889 0.351562C68.3193 0.351562 67.0469 1.62397 67.0469 3.19356C67.0469 4.76316 68.3193 6.03556 69.8889 6.03556Z" fill="#FF3363"/>
<path d="M115.016 9.93339C116.034 10.1744 116.868 10.3834 117.958 10.6224C119.405 10.9394 122.058 10.9974 122.058 8.68639C122.058 6.37539 119.589 5.40039 114.858 5.40039C110.127 5.40039 108.384 7.33139 107.77 8.80039C107.462 9.50558 107.376 10.2879 107.524 11.0433C107.671 11.7986 108.045 12.4911 108.596 13.0284C109.107 13.4515 109.699 13.7647 110.336 13.9484C111.788 14.3354 113.398 14.8754 114.436 15.1204C114.505 15.1337 114.571 15.161 114.629 15.2007C114.687 15.2403 114.736 15.2914 114.774 15.3508C114.811 15.4102 114.836 15.4767 114.847 15.5461C114.858 15.6155 114.854 15.6864 114.836 15.7544C114.789 15.8903 114.693 16.0034 114.566 16.0711C114.439 16.1388 114.291 16.156 114.152 16.1194C113.134 15.8784 112.3 15.6694 111.209 15.4314C109.763 15.1144 107.109 15.0554 107.109 17.3664C107.109 19.6774 109.579 20.6524 114.309 20.6524C119.039 20.6524 121.432 18.7224 122.047 17.2524C122.355 16.5473 122.441 15.7652 122.293 15.0101C122.146 14.2551 121.772 13.5628 121.221 13.0254C120.711 12.6021 120.119 12.2889 119.481 12.1054C118.03 11.7174 115.769 11.1774 114.734 10.9334C114.665 10.9201 114.6 10.8927 114.542 10.853C114.484 10.8133 114.434 10.7622 114.397 10.7026C114.359 10.6431 114.334 10.5765 114.324 10.507C114.313 10.4374 114.317 10.3664 114.334 10.2984C114.382 10.1631 114.478 10.0504 114.604 9.98281C114.73 9.9152 114.878 9.89756 115.016 9.93339Z" fill="black"/>
</svg>
