<svg width="72" height="29" viewBox="0 0 72 29" fill="none" xmlns="http://www.w3.org/2000/svg">
<path d="M0.654297 28.9842V8.82422H6.29529V24.9342H13.9443V28.9842H0.654297Z" fill="black"/>
<path d="M16.9746 28.9842V8.82422H22.6446V28.9842H16.9746Z" fill="black"/>
<path d="M31.9735 28.9842L25.1035 8.82422H30.8635L35.1235 22.4442H35.2735L39.5035 8.82422H44.6635L37.7935 28.9842H31.9735Z" fill="black"/>
<path d="M47.0645 28.9842V8.82422H60.9844V12.8742H52.6444V16.7142H59.1534V20.6742H52.6444V24.9342H61.2545V28.9842H47.0645Z" fill="black"/>
<path d="M67.1094 8C69.3185 8 71.1094 6.20914 71.1094 4C71.1094 1.79086 69.3185 0 67.1094 0C64.9002 0 63.1094 1.79086 63.1094 4C63.1094 6.20914 64.9002 8 67.1094 8Z" fill="#FF3363"/>
</svg>
