<svg width="15" height="18" viewBox="0 0 15 18" fill="none" xmlns="http://www.w3.org/2000/svg">
<path d="M11.3916 0.288608C11.4256 0.356479 11.4444 0.43091 11.4469 0.506748C11.4494 0.582585 11.4356 0.658083 11.4062 0.728061C11.3769 0.798039 11.3328 0.860843 11.2769 0.912204C11.2211 0.963565 11.1548 1.00223 11.0826 1.02561L7.88262 2.47763C7.72842 2.55534 7.5575 2.59396 7.38488 2.59012C7.21225 2.58629 7.04319 2.54008 6.8926 2.4556L4.82662 1.47763C4.76294 1.43839 4.70826 1.3861 4.66619 1.32425C4.62411 1.26241 4.59557 1.19239 4.58245 1.11875C4.56932 1.04511 4.57193 0.969518 4.59005 0.896945C4.60817 0.824372 4.64141 0.756433 4.68761 0.697604C4.73244 0.642102 4.7881 0.59635 4.85122 0.563083C4.91433 0.529816 4.98358 0.509738 5.05471 0.504123C5.12583 0.498508 5.19736 0.507479 5.26491 0.530429C5.33247 0.55338 5.39464 0.589827 5.44762 0.637607L7.03762 1.9166C7.1055 1.97471 7.18633 2.01568 7.27334 2.03604C7.36035 2.0564 7.451 2.05556 7.53762 2.0336C7.60315 2.01599 7.66555 1.98836 7.72262 1.95163L10.6426 0.0766328C10.7051 0.0389348 10.7746 0.0144472 10.847 0.0047334C10.9193 -0.00498036 10.9929 0.00029983 11.0631 0.0201753C11.1333 0.0400508 11.1987 0.0740921 11.2552 0.120273C11.3117 0.166454 11.3582 0.223752 11.3916 0.288608Z" fill="#2253A4"/>
<mask id="mask0_667_832" style="mask-type:luminance" maskUnits="userSpaceOnUse" x="0" y="2" width="15" height="16">
<path d="M3.01567 3.3924C2.63334 3.4831 2.2601 3.60862 1.90065 3.7674C1.56501 3.90315 1.26273 4.1099 1.01451 4.37347C0.7663 4.63705 0.578043 4.95119 0.462665 5.29437C0.393812 5.49891 0.339657 5.70815 0.300647 5.92041C0.0911661 7.19924 -0.00918322 8.49353 0.000659481 9.78937C-0.0018535 11.4525 0.163987 13.1117 0.495655 14.7414C0.552775 15.0869 0.698917 15.4116 0.919666 15.6834C1.24159 16.1061 1.70166 16.4023 2.21965 16.5204L2.33367 16.5424C5.68825 17.2051 9.14007 17.2051 12.4946 16.5424L12.5757 16.5264C13.003 16.4321 13.3941 16.2164 13.7018 15.9053C14.0096 15.5941 14.221 15.2008 14.3107 14.7724V14.7614C14.6436 13.1264 14.8111 11.462 14.8107 9.7934C14.806 8.48755 14.7034 7.18386 14.5037 5.89337C14.4668 5.69086 14.4187 5.49058 14.3597 5.2934C14.2341 4.95489 14.0401 4.6459 13.7898 4.38574C13.5394 4.12559 13.2381 3.91984 12.9047 3.78137C12.5231 3.6336 12.1339 3.50643 11.7387 3.40039C10.3378 3.04576 8.89873 2.86405 7.45366 2.85938H7.33165C5.87615 2.872 4.42693 3.05217 3.01265 3.39636" fill="white"/>
</mask>
<g mask="url(#mask0_667_832)">
<path d="M15.4767 6.20863C15.2507 4.53163 14.8636 3.5746 12.6766 3.0796C11.1781 2.73949 9.6505 2.54358 8.11465 2.49458C7.86565 2.48358 7.61465 2.48358 7.36865 2.49458C5.8328 2.54352 4.30515 2.73944 2.80664 3.0796C0.62464 3.5746 0.237657 4.53163 0.0116565 6.20863C-0.261698 8.66471 -0.261698 11.1435 0.0116565 13.5996C0.237657 15.2776 0.62464 16.2346 2.80664 16.7286C4.30711 17.0414 5.83592 17.1983 7.36865 17.1966C7.61765 17.2076 7.86865 17.2076 8.11465 17.1966C9.64739 17.1982 11.1762 17.0414 12.6766 16.7286C14.8586 16.2346 15.2457 15.2776 15.4767 13.5996C15.7487 11.1435 15.7487 8.66479 15.4767 6.20863Z" fill="#2253A4"/>
<path d="M9.95119 7.60916C9.93519 7.03016 9.93019 6.45916 9.94219 5.88516C9.93889 5.6694 9.99093 5.45639 10.0933 5.26645C10.1958 5.07651 10.3451 4.91602 10.5272 4.8002C10.7263 4.68492 10.95 4.61875 11.1797 4.60727C11.4095 4.59579 11.6386 4.63929 11.8482 4.73416C12.5232 5.03416 13.3942 5.4982 13.3942 5.4982C13.8942 5.7692 14.3162 5.99819 14.8412 6.34219H14.8482L14.9282 6.38919C15.1077 6.50377 15.2557 6.66141 15.3586 6.84781C15.4615 7.03421 15.5162 7.24346 15.5176 7.45639C15.519 7.66933 15.4671 7.87919 15.3666 8.06693C15.2661 8.25466 15.1202 8.41424 14.9422 8.53116C14.4422 8.86216 14.0122 9.17717 13.5002 9.49417C13.0663 9.76923 12.6173 10.0196 12.1552 10.2442C11.9371 10.3621 11.6954 10.4296 11.4477 10.4419C11.2001 10.4542 10.9529 10.4109 10.7242 10.3152C10.5271 10.1994 10.3616 10.0369 10.2425 9.84183C10.1233 9.64679 10.0542 9.42536 10.0412 9.19718C10.0412 9.19718 9.98119 8.55818 9.95519 7.60318" fill="#1FB2DA"/>
<path d="M10.8325 12.2224C9.84621 12.9727 8.64117 13.3789 7.40196 13.3789C6.16276 13.3789 4.95774 12.9727 3.97148 12.2224C3.90902 12.1626 3.82536 12.13 3.73891 12.1319C3.65245 12.1338 3.57029 12.1699 3.51048 12.2324C3.45068 12.2948 3.41812 12.3785 3.42 12.465C3.42187 12.5514 3.458 12.6336 3.52046 12.6934C4.62819 13.5559 5.99204 14.0243 7.39598 14.0243C8.79993 14.0243 10.1637 13.5559 11.2715 12.6934C11.3046 12.6651 11.3317 12.6304 11.3511 12.5914C11.3705 12.5524 11.3819 12.5098 11.3844 12.4663C11.387 12.4228 11.3808 12.3792 11.3662 12.3381C11.3515 12.2971 11.3288 12.2594 11.2992 12.2274C11.2697 12.1953 11.2339 12.1696 11.1942 12.1517C11.1545 12.1338 11.1115 12.1241 11.0679 12.1231C11.0244 12.1222 10.9811 12.1301 10.9406 12.1463C10.9001 12.1625 10.8634 12.1867 10.8325 12.2174" fill="white"/>
<path d="M9.50784 9.65393V9.63898L9.49884 9.53894L9.27783 7.09796L9.27084 7.02893C9.26459 6.97609 9.25523 6.92369 9.24283 6.87195C9.18352 6.63568 9.05704 6.42166 8.87869 6.25574C8.70034 6.08981 8.47775 5.97907 8.23782 5.93695C8.16852 5.92447 8.09825 5.91813 8.02783 5.91797H6.77682C6.71589 5.91806 6.65505 5.92272 6.59482 5.93195C6.34961 5.96946 6.12091 6.07846 5.93735 6.2453C5.75378 6.41215 5.62352 6.62941 5.56284 6.86993C5.5524 6.91149 5.54406 6.95358 5.53784 6.99597L5.52582 7.12695L5.30383 9.55194L5.29883 9.60797V9.64996V9.69794C5.29886 9.97601 5.39088 10.2463 5.56055 10.4666C5.73021 10.6869 5.96798 10.8449 6.23682 10.916C6.34099 10.9432 6.44815 10.9573 6.55582 10.9579H8.25583C8.32289 10.9578 8.38982 10.9517 8.45584 10.9399C8.74992 10.8911 9.01708 10.7395 9.20975 10.512C9.40242 10.2846 9.50808 9.99604 9.50784 9.69794V9.64996" fill="#4EB74B"/>
<path d="M4.79513 8.30813C4.59582 9.04994 4.11957 9.68704 3.4645 10.0882C2.80944 10.4893 2.02546 10.6238 1.27413 10.4641C0.85848 10.3529 0.471204 10.1547 0.138025 9.88241C-0.195155 9.61015 -0.466644 9.27014 -0.658423 8.88497C-0.850202 8.49981 -0.957882 8.07829 -0.974341 7.64834C-0.9908 7.21839 -0.915654 6.78984 -0.753882 6.39114C-0.391615 5.72086 0.18636 5.19255 0.886407 4.89181C1.58645 4.59106 2.36755 4.53551 3.10311 4.73415C4.80811 5.25715 5.28313 6.68213 4.79513 8.30813Z" fill="#E24287"/>
<path d="M13.333 7.54053C13.3332 7.75081 13.2711 7.95641 13.1544 8.13135C13.0377 8.30629 12.8717 8.44271 12.6775 8.52332C12.4833 8.60392 12.2695 8.62513 12.0633 8.58423C11.857 8.54333 11.6675 8.44214 11.5187 8.29352C11.37 8.14489 11.2686 7.9555 11.2275 7.74927C11.1864 7.54304 11.2074 7.32924 11.2879 7.13495C11.3683 6.94065 11.5045 6.77456 11.6793 6.65771C11.8542 6.54087 12.0598 6.47852 12.27 6.47852C12.5518 6.47852 12.822 6.59035 13.0213 6.78949C13.2206 6.98862 13.3328 7.25878 13.333 7.54053Z" fill="#1B1B1A"/>
<path d="M3.44436 7.54053C3.44456 7.75085 3.38234 7.95651 3.26562 8.13147C3.14889 8.30643 2.98291 8.4428 2.78863 8.52338C2.59435 8.60396 2.38051 8.62509 2.17422 8.58411C1.96792 8.54312 1.77841 8.44188 1.62969 8.29315C1.48097 8.14443 1.37972 7.95495 1.33874 7.74866C1.29775 7.54236 1.31889 7.32856 1.39947 7.13428C1.48005 6.94 1.61644 6.77395 1.7914 6.65723C1.96637 6.5405 2.17202 6.47832 2.38235 6.47852C2.66392 6.47878 2.93391 6.59075 3.13302 6.78986C3.33212 6.98896 3.44409 7.25895 3.44436 7.54053Z" fill="#1B1B1A"/>
</g>
</svg>
