<svg width="107" height="18" viewBox="0 0 107 18" fill="none" xmlns="http://www.w3.org/2000/svg">
<path d="M33.6709 4.16739C33.6747 3.74964 33.7657 3.33725 33.938 2.9567C34.1104 2.57614 34.3603 2.2358 34.6718 1.95743C34.9833 1.67906 35.3495 1.46883 35.747 1.34018C36.1444 1.21153 36.5644 1.16731 36.9799 1.21036H40.1179C40.2716 1.18259 40.4295 1.1889 40.5805 1.22885C40.7315 1.2688 40.8719 1.34142 40.9918 1.44156C41.1116 1.5417 41.208 1.6669 41.2742 1.80838C41.3404 1.94986 41.3746 2.10416 41.3746 2.26035C41.3746 2.41653 41.3404 2.57083 41.2742 2.71231C41.208 2.85379 41.1116 2.97905 40.9918 3.07919C40.8719 3.17934 40.7315 3.25189 40.5805 3.29184C40.4295 3.33179 40.2716 3.3381 40.1179 3.31033H38.6649C37.7019 3.31633 37.7849 4.01035 37.7849 4.01035V5.37436H39.5379C39.8402 5.34427 40.1422 5.43426 40.3787 5.62491C40.6152 5.81556 40.7672 6.09157 40.8019 6.39334C40.7963 6.53942 40.7612 6.68284 40.6987 6.81497C40.6362 6.9471 40.5475 7.06523 40.438 7.16214C40.3286 7.25906 40.2007 7.33277 40.062 7.37888C39.9232 7.42498 39.7766 7.44252 39.6309 7.43039H37.7849V14.3614C37.7745 14.615 37.7141 14.864 37.607 15.0941C37.4999 15.3243 37.3484 15.531 37.1611 15.7023C36.9738 15.8736 36.7544 16.0062 36.5157 16.0923C36.2769 16.1785 36.0235 16.2166 35.7699 16.2044C35.2556 16.2462 34.7456 16.0822 34.3519 15.7485C33.9583 15.4148 33.713 14.9386 33.6699 14.4243L33.6709 4.16739Z" fill="#2253A4"/>
<path d="M45.3329 14.3526C45.3293 14.609 45.2734 14.8619 45.1689 15.096C45.0643 15.3301 44.9131 15.5404 44.7245 15.7142C44.536 15.8879 44.314 16.0215 44.0722 16.1067C43.8304 16.1919 43.5737 16.2269 43.3179 16.2096C42.8044 16.2467 42.2967 16.0814 41.9034 15.7492C41.51 15.417 41.2622 14.9441 41.2129 14.4316V8.1886C41.2129 8.1886 41.2129 5.43359 44.6129 5.43359H47.3129C48.7239 5.43359 48.7239 6.51459 48.7239 6.51459C48.7239 6.51459 48.7239 7.55457 47.4039 7.55457H46.2099C45.3309 7.55457 45.3309 8.2356 45.3309 8.2356L45.3329 14.3526Z" fill="#2253A4"/>
<path d="M65.3533 5.36139C68.8723 5.36139 68.8723 8.18738 68.8723 8.18738V11.1133C68.8562 11.2636 68.8107 11.4093 68.7383 11.5421C68.6659 11.6748 68.5681 11.7919 68.4504 11.8868C68.3328 11.9817 68.1976 12.0525 68.0526 12.0952C67.9076 12.1378 67.7556 12.1515 67.6053 12.1354H63.7253V13.3934C63.7253 13.3934 63.7633 14.0533 64.6583 14.0533H66.8353C66.9865 14.0403 67.1388 14.0574 67.2834 14.1034C67.4281 14.1494 67.5622 14.2236 67.6781 14.3217C67.794 14.4197 67.8893 14.5397 67.9587 14.6747C68.028 14.8097 68.07 14.957 68.0822 15.1083C68.0567 15.4172 67.9126 15.7043 67.6802 15.9094C67.4477 16.1144 67.1449 16.2216 66.8353 16.2084H63.0103C59.6563 16.2084 59.6562 13.4184 59.6562 13.4184V8.18536C59.6562 8.18536 59.6812 5.39037 63.0352 5.35938L65.3533 5.36139ZM64.6783 7.56738C63.7643 7.56738 63.7643 8.23236 63.7643 8.23236V10.0533H66.3643V8.27838C66.3614 8.17593 66.3372 8.07517 66.2932 7.9826C66.2491 7.89004 66.1863 7.80769 66.1087 7.74078C66.031 7.67387 65.9403 7.62391 65.8423 7.59406C65.7442 7.5642 65.641 7.5551 65.5392 7.56738H64.6783Z" fill="#2253A4"/>
<path d="M77.6876 14.1056C78.0082 14.0874 78.3237 14.1926 78.5693 14.3995C78.8149 14.6065 78.9721 14.8995 79.0086 15.2186C79.0086 15.8076 78.3846 16.2096 77.6876 16.2096H72.2106C71.968 16.2375 71.7222 16.2153 71.4885 16.1444C71.2548 16.0735 71.0381 15.9554 70.8519 15.7973C70.6657 15.6392 70.514 15.4446 70.4061 15.2255C70.2982 15.0064 70.2364 14.7675 70.2246 14.5236V7.14056C70.2737 6.6276 70.5215 6.15422 70.915 5.82159C71.3086 5.48895 71.8166 5.32351 72.3306 5.36059H77.9026C78.0535 5.34714 78.2056 5.36361 78.3501 5.40911C78.4946 5.45461 78.6286 5.52825 78.7446 5.62572C78.8606 5.7232 78.9561 5.84258 79.0258 5.9771C79.0955 6.11162 79.1379 6.25858 79.1506 6.40954C79.1374 6.55926 79.0944 6.70487 79.0242 6.83776C78.954 6.97065 78.8579 7.08818 78.7417 7.18346C78.6255 7.27875 78.4913 7.34986 78.3473 7.39263C78.2032 7.43541 78.052 7.44897 77.9026 7.43255H74.9286C74.866 7.42458 74.8024 7.42977 74.7419 7.44781C74.6815 7.46584 74.6254 7.49633 74.5774 7.53728C74.5294 7.57824 74.4905 7.62878 74.4631 7.68566C74.4358 7.74254 74.4206 7.80447 74.4186 7.86755V13.6536C74.4186 13.6536 74.3846 14.1036 74.9316 14.1036L77.6876 14.1056Z" fill="#2253A4"/>
<path d="M88.5395 8.16357V14.3986C88.4921 14.9196 88.2425 15.4013 87.8441 15.7404C87.4458 16.0795 86.9304 16.249 86.4085 16.2126H82.8535C79.3535 16.2126 79.3535 13.3906 79.3535 13.3906V11.9906C79.3535 11.9906 79.5715 9.44061 82.8535 9.45361H84.3535V8.17657C84.3535 8.17657 84.3535 7.51861 83.5285 7.51861H81.6225C80.9225 7.51861 80.2485 7.10861 80.2485 6.51861C80.289 6.19481 80.4481 5.89747 80.695 5.68414C80.942 5.47081 81.2593 5.35661 81.5855 5.36358H85.1855C88.5405 5.37858 88.5405 8.16357 88.5405 8.16357M82.6855 14.0706H84.3515V11.5836H82.6855C81.7775 11.5836 81.8645 12.8236 81.8645 12.8236C81.8645 12.8236 81.7645 14.0666 82.6855 14.0666" fill="#2253A4"/>
<path d="M98.3229 2.62482C98.3229 2.62482 98.3229 1.67383 97.0619 1.67383H88.3099C87.0469 1.67383 87.0469 2.59686 87.0469 2.59686C87.0469 2.59686 87.0469 3.51184 88.2289 3.51184H90.0609C90.8469 3.51184 90.8469 4.11182 90.8469 4.11182V9.75586C90.8521 9.98319 90.9035 10.2071 90.9979 10.4139C91.0924 10.6208 91.2279 10.8063 91.3962 10.9591C91.5646 11.1119 91.7623 11.2289 91.9773 11.303C92.1923 11.377 92.4201 11.4066 92.6469 11.3898C93.1026 11.4254 93.5543 11.2818 93.9057 10.9896C94.2572 10.6973 94.4808 10.2794 94.5289 9.82483V4.09882C94.5429 3.96982 94.6419 3.53687 95.3119 3.53687H97.1419C98.3239 3.53687 98.3239 2.62286 98.3239 2.62286" fill="#2253A4"/>
<path d="M32.2888 8.1577V14.3987C32.2414 14.9199 31.9916 15.4018 31.593 15.7409C31.1944 16.08 30.6788 16.2494 30.1567 16.2127H26.5998C23.0938 16.2127 23.0938 13.3887 23.0938 13.3887V11.9887C23.0938 11.9887 23.3158 9.43769 26.5998 9.44969H28.0998V8.17168C28.0998 8.17168 28.0997 7.51268 27.2747 7.51268H25.3677C24.6677 7.51268 23.9918 7.10368 23.9918 6.51268C24.0332 6.18871 24.1929 5.8915 24.4403 5.67827C24.6877 5.46503 25.0052 5.35088 25.3318 5.35771H28.9318C32.2888 5.37471 32.2888 8.1577 32.2888 8.1577ZM26.4308 14.0687H28.0957V11.5847H26.4308C25.4878 11.5847 25.6087 12.8257 25.6087 12.8257C25.6087 12.8257 25.5088 14.0687 26.4308 14.0687Z" fill="#2253A4"/>
<path d="M54.8112 5.36139C58.3312 5.36139 58.3311 8.18738 58.3311 8.18738V11.1133C58.3151 11.2636 58.2695 11.4093 58.1971 11.5421C58.1248 11.6748 58.027 11.7919 57.9093 11.8868C57.7917 11.9817 57.6565 12.0525 57.5114 12.0952C57.3664 12.1378 57.2144 12.1515 57.0641 12.1354H53.1852V13.3934C53.1852 13.3934 53.2231 14.0533 54.1181 14.0533H56.2951C56.4464 14.0403 56.5988 14.0574 56.7435 14.1034C56.8882 14.1494 57.0224 14.2236 57.1383 14.3216C57.2543 14.4196 57.3497 14.5396 57.4192 14.6746C57.4887 14.8096 57.5308 14.957 57.5432 15.1083C57.5176 15.4174 57.3734 15.7047 57.1407 15.9097C56.908 16.1148 56.605 16.2218 56.2951 16.2084H52.4731C49.1191 16.2084 49.1191 13.4184 49.1191 13.4184V8.18536C49.1191 8.18536 49.1441 5.39037 52.4981 5.35938L54.8112 5.36139ZM54.1371 7.56738C53.2231 7.56738 53.2231 8.23236 53.2231 8.23236V10.0533H55.8232V8.27838C55.8202 8.17612 55.7961 8.07557 55.7522 7.98315C55.7083 7.89074 55.6457 7.80846 55.5682 7.74158C55.4908 7.6747 55.4003 7.62466 55.3025 7.59467C55.2047 7.56467 55.1018 7.5554 55.0002 7.56738H54.1371Z" fill="#2253A4"/>
<path d="M106.021 1.98495C105.591 1.72708 105.076 1.64995 104.589 1.77041C104.102 1.89088 103.682 2.19917 103.421 2.62796L100.111 7.07492L98.9113 4.49893C98.72 4.24957 98.4536 4.06834 98.1514 3.98208C97.8493 3.89582 97.5274 3.9091 97.2333 4.01992C96.9774 4.14914 96.7762 4.36572 96.6662 4.6304C96.5561 4.89508 96.5445 5.19038 96.6333 5.46292L98.8213 10.4909C98.9428 10.7072 99.1118 10.8931 99.3154 11.0348C99.5191 11.1765 99.7522 11.2702 99.9973 11.3089C100.415 11.389 100.847 11.3445 101.24 11.1809C101.633 11.0174 101.969 10.742 102.206 10.3889L106.406 4.62796C106.704 4.22512 106.83 3.72064 106.756 3.22519C106.682 2.72973 106.415 2.28374 106.013 1.98495" fill="#2253A4"/>
<path d="M12.126 0.480014C12.1599 0.547886 12.1788 0.622316 12.1813 0.698154C12.1838 0.773991 12.17 0.84949 12.1406 0.919467C12.1113 0.989445 12.0672 1.05225 12.0113 1.10361C11.9555 1.15497 11.8892 1.19363 11.817 1.21701L8.61699 2.66904C8.4628 2.74675 8.29188 2.78536 8.11925 2.78153C7.94663 2.77769 7.77756 2.73148 7.62697 2.64701L5.56099 1.66904C5.49732 1.62979 5.44264 1.5775 5.40056 1.51566C5.35849 1.45381 5.32995 1.38379 5.31682 1.31015C5.3037 1.23651 5.3063 1.16092 5.32442 1.08835C5.34254 1.01578 5.37579 0.947839 5.42199 0.889011C5.46682 0.833509 5.52248 0.787756 5.58559 0.754489C5.64871 0.721223 5.71796 0.701144 5.78908 0.695529C5.86021 0.689914 5.93173 0.698885 5.99929 0.721835C6.06684 0.744786 6.12901 0.781233 6.182 0.829013L7.77199 2.108C7.83988 2.16612 7.9207 2.20709 8.00771 2.22745C8.09472 2.24781 8.18537 2.24697 8.27199 2.22501C8.33752 2.20739 8.39993 2.17976 8.45699 2.14304L11.377 0.268039C11.4395 0.230341 11.509 0.205853 11.5813 0.19614C11.6537 0.186426 11.7273 0.191706 11.7975 0.211582C11.8677 0.231457 11.9331 0.265498 11.9896 0.311679C12.0461 0.35786 12.0925 0.415158 12.126 0.480014Z" fill="#2253A4"/>
<mask id="mask0_622_1302" style="mask-type:luminance" maskUnits="userSpaceOnUse" x="0" y="3" width="16" height="15">
<path d="M3.75005 3.5838C3.36772 3.67451 2.99447 3.80003 2.63503 3.9588C2.29939 4.09456 1.9971 4.3013 1.74889 4.56488C1.50067 4.82846 1.31242 5.1426 1.19704 5.48578C1.12819 5.69032 1.07403 5.89955 1.03502 6.11182C0.825541 7.39065 0.725192 8.68494 0.735034 9.98077C0.732522 11.6439 0.898362 13.3031 1.23003 14.9328C1.28715 15.2783 1.43329 15.603 1.65404 15.8748C1.97596 16.2975 2.43604 16.5937 2.95403 16.7118L3.06804 16.7338C6.42263 17.3965 9.87444 17.3965 13.229 16.7338L13.31 16.7178C13.7374 16.6235 14.1284 16.4078 14.4362 16.0967C14.744 15.7855 14.9554 15.3922 15.045 14.9638V14.9528C15.378 13.3178 15.5455 11.6534 15.545 9.9848C15.5404 8.67895 15.4378 7.37527 15.238 6.08478C15.2012 5.88227 15.1531 5.68199 15.094 5.4848C14.9685 5.14629 14.7745 4.8373 14.5241 4.57715C14.2738 4.31699 13.9725 4.11124 13.639 3.97278C13.2575 3.825 12.8682 3.69784 12.473 3.5918C11.0722 3.23716 9.6331 3.05546 8.18804 3.05078H8.06603C6.61052 3.0634 5.16131 3.24358 3.74703 3.58777" fill="white"/>
</mask>
<g mask="url(#mask0_622_1302)">
<path d="M16.211 6.40003C15.985 4.72303 15.598 3.76601 13.411 3.27101C11.9125 2.9309 10.3849 2.73499 8.84903 2.68598C8.60003 2.67498 8.34903 2.67498 8.10303 2.68598C6.56717 2.73493 5.03952 2.93085 3.54101 3.27101C1.35901 3.76601 0.972032 4.72303 0.746032 6.40003C0.472677 8.85612 0.472677 11.3349 0.746032 13.791C0.972032 15.469 1.35901 16.426 3.54101 16.92C5.04148 17.2328 6.57029 17.3897 8.10303 17.388C8.35203 17.399 8.60303 17.399 8.84903 17.388C10.3818 17.3897 11.9105 17.2328 13.411 16.92C15.593 16.426 15.98 15.469 16.211 13.791C16.483 11.3349 16.483 8.85619 16.211 6.40003Z" fill="#2253A4"/>
<path d="M10.6856 7.80057C10.6696 7.22157 10.6646 6.65057 10.6766 6.07657C10.6733 5.86081 10.7253 5.6478 10.8277 5.45786C10.9301 5.26792 11.0795 5.10742 11.2616 4.99161C11.4607 4.87632 11.6843 4.81016 11.9141 4.79868C12.1438 4.7872 12.373 4.8307 12.5826 4.92557C13.2576 5.22557 14.1286 5.68961 14.1286 5.68961C14.6286 5.96061 15.0506 6.1896 15.5756 6.5336H15.5826L15.6626 6.5806C15.8421 6.69518 15.99 6.85281 16.093 7.03922C16.1959 7.22562 16.2506 7.43486 16.252 7.6478C16.2534 7.86073 16.2014 8.0706 16.1009 8.25833C16.0004 8.44606 15.8545 8.60565 15.6766 8.72257C15.1766 9.05357 14.7466 9.36858 14.2346 9.68558C13.8007 9.96064 13.3516 10.211 12.8896 10.4356C12.6715 10.5535 12.4297 10.621 12.1821 10.6333C11.9345 10.6456 11.6873 10.6023 11.4586 10.5066C11.2615 10.3908 11.096 10.2283 10.9769 10.0332C10.8577 9.8382 10.7886 9.61676 10.7756 9.38858C10.7756 9.38858 10.7156 8.74959 10.6896 7.79459" fill="#1FB2DA"/>
<path d="M11.5668 12.4138C10.5806 13.1641 9.37554 13.5703 8.13634 13.5703C6.89713 13.5703 5.69212 13.1641 4.70586 12.4138C4.6434 12.354 4.55974 12.3214 4.47328 12.3233C4.38683 12.3252 4.30466 12.3613 4.24486 12.4238C4.18505 12.4862 4.1525 12.5699 4.15437 12.6564C4.15625 12.7428 4.19238 12.825 4.25484 12.8848C5.36257 13.7473 6.72641 14.2157 8.13036 14.2157C9.5343 14.2157 10.8981 13.7473 12.0058 12.8848C12.039 12.8565 12.0661 12.8218 12.0855 12.7828C12.1049 12.7438 12.1162 12.7012 12.1188 12.6577C12.1214 12.6142 12.1152 12.5706 12.1005 12.5296C12.0859 12.4885 12.0631 12.4508 12.0336 12.4188C12.004 12.3867 11.9683 12.361 11.9286 12.3431C11.8888 12.3252 11.8459 12.3155 11.8023 12.3145C11.7587 12.3136 11.7154 12.3215 11.675 12.3377C11.6345 12.3539 11.5977 12.3781 11.5668 12.4088" fill="white"/>
<path d="M10.2422 9.84534V9.83038L10.2332 9.73035L10.0122 7.28937L10.0052 7.22034C9.99897 7.1675 9.9896 7.11509 9.9772 7.06335C9.9179 6.82708 9.79142 6.61307 9.61307 6.44714C9.43472 6.28122 9.21213 6.17048 8.9722 6.12836C8.90289 6.11587 8.83263 6.10953 8.76221 6.10938H7.5112C7.45027 6.10947 7.38942 6.11412 7.32919 6.12335C7.08399 6.16086 6.85529 6.26986 6.67172 6.43671C6.48816 6.60355 6.3579 6.82082 6.29721 7.06134C6.28677 7.1029 6.27843 7.14499 6.27222 7.18738L6.26019 7.31836L6.03821 9.74335L6.0332 9.79938V9.84137V9.88934C6.03324 10.1674 6.12526 10.4377 6.29492 10.658C6.46459 10.8783 6.70235 11.0363 6.97119 11.1074C7.07536 11.1346 7.18253 11.1487 7.29019 11.1494H8.9902C9.05727 11.1492 9.1242 11.1432 9.19022 11.1313C9.48429 11.0825 9.75145 10.9309 9.94412 10.7034C10.1368 10.476 10.2425 10.1874 10.2422 9.88934V9.84137" fill="#4EB74B"/>
<path d="M5.5295 8.49954C5.33019 9.24134 4.85394 9.87845 4.19888 10.2796C3.54381 10.6807 2.75984 10.8152 2.00851 10.6555C1.59286 10.5443 1.20558 10.3461 0.8724 10.0738C0.53922 9.80156 0.267731 9.46154 0.075952 9.07638C-0.115827 8.69121 -0.223507 8.2697 -0.239966 7.83975C-0.256425 7.40979 -0.181279 6.98124 -0.019507 6.58254C0.34276 5.91226 0.920735 5.38396 1.62078 5.08321C2.32083 4.78247 3.10192 4.72692 3.83749 4.92556C5.54249 5.44856 6.0175 6.87354 5.5295 8.49954Z" fill="#E24287"/>
<path d="M14.0674 7.73193C14.0676 7.94222 14.0054 8.14781 13.8888 8.32275C13.7721 8.49769 13.6061 8.63411 13.4119 8.71472C13.2177 8.79533 13.0039 8.81654 12.7976 8.77563C12.5914 8.73473 12.4019 8.63355 12.2531 8.48492C12.1043 8.3363 12.003 8.1469 11.9619 7.94067C11.9208 7.73444 11.9418 7.52065 12.0222 7.32635C12.1027 7.13206 12.2389 6.96597 12.4137 6.84912C12.5885 6.73227 12.7941 6.66992 13.0044 6.66992C13.2862 6.66992 13.5564 6.78176 13.7557 6.9809C13.955 7.18003 14.0671 7.45018 14.0674 7.73193Z" fill="#1B1B1A"/>
<path d="M4.17873 7.73193C4.17893 7.94226 4.11672 8.14791 3.99999 8.32288C3.88326 8.49784 3.71728 8.6342 3.523 8.71478C3.32872 8.79536 3.11489 8.8165 2.90859 8.77551C2.7023 8.73453 2.51279 8.63328 2.36407 8.48456C2.21534 8.33584 2.1141 8.14636 2.07311 7.94006C2.03213 7.73377 2.05326 7.51996 2.13384 7.32568C2.21442 7.13141 2.35082 6.96536 2.52578 6.84863C2.70074 6.73191 2.90639 6.66972 3.11672 6.66992C3.3983 6.67019 3.66829 6.78216 3.86739 6.98126C4.0665 7.18037 4.17847 7.45036 4.17873 7.73193Z" fill="#1B1B1A"/>
</g>
</svg>
