<svg width="79" height="21" viewBox="0 0 79 21" fill="none" xmlns="http://www.w3.org/2000/svg">
<path d="M16.6113 11.4784L13.7623 14.3284H9.28632L6.84433 16.7693V14.3284H3.18134V2.52838H16.6113V11.4784ZM1.54932 0.900391L0.736328 4.15637V18.8004H4.39932V20.8354H6.43332L8.46933 18.8004H11.7243L18.2353 12.2894V0.900391H1.54932Z" fill="#6441A5"/>
<path d="M7.65625 10.6652H9.28323V5.78125H7.65625V10.6652ZM12.1322 10.6652H13.7603V5.78125H12.1322V10.6652Z" fill="#6441A5"/>
<path d="M77.4783 8.50085L75.2053 6.22784H70.9833V3.30084H67.4113V16.6158H70.9843V9.80084H73.9063V16.6208H77.4793L77.4783 8.50085ZM66.1113 6.22687H60.5913L58.3183 8.49988V14.3448L60.5913 16.6188H66.1113V13.0469H61.8893V9.80084H66.1113V6.22687ZM57.0183 6.22687H54.0963V3.30084H50.5233V14.3419L52.7963 16.6158H57.0183V13.0439H54.0963V9.80084H57.0183V6.22687ZM49.2243 3.30383H45.6523V4.92883H49.2243V3.30383ZM49.2243 6.22687H45.6523V16.6188H49.2243V6.22687ZM44.3533 6.22687H40.7813V13.0469H39.4813V6.22687H35.9113V13.0469H34.6113V6.22687H31.0383V16.6188H42.0813L44.3543 14.3448V6.22687H44.3533ZM29.7403 6.22687H26.8173V3.30084H23.2453V14.3419L25.5183 16.6158H29.7403V13.0439H26.8173V9.80084H29.7403V6.22888V6.22687ZM78.7753 7.85083V17.5928L73.9043 20.8398H70.6573V19.2159L68.3843 20.8398H65.4623V19.2159L63.8383 20.8398H58.6383L57.0143 19.2159L56.6893 20.8398H52.1433L50.2843 19.2159L50.1843 20.8398H45.0323L44.8503 19.2159L43.4553 20.8398H35.5853L33.9613 20.1909V20.8398H29.7413L24.8693 17.9169L21.9473 14.9958V2.00586H28.1173L31.0403 4.92883H44.3543V2.00586H55.3953V4.92883H58.3183V6.55188L59.9423 4.92883H63.1893L66.1113 2.00586H72.2813V4.92883H75.8543L78.7753 7.85083Z" fill="#6441A5"/>
</svg>
