<svg width="79" height="18" viewBox="0 0 79 18" fill="none" xmlns="http://www.w3.org/2000/svg">
<path d="M24.4393 3.03641C24.2972 2.50923 24.0192 2.02856 23.6332 1.64249C23.2471 1.25642 22.7664 0.978461 22.2393 0.836395C20.2983 0.316395 12.5163 0.316406 12.5163 0.316406C12.5163 0.316406 4.73326 0.316395 2.79226 0.836395C2.26508 0.978461 1.78444 1.25642 1.39837 1.64249C1.0123 2.02856 0.734314 2.50923 0.592248 3.03641C-0.101062 6.99998 -0.101062 11.0538 0.592248 15.0174C0.734038 15.5447 1.01192 16.0255 1.39803 16.4116C1.78415 16.7977 2.26494 17.0756 2.79226 17.2174C4.73326 17.7374 12.5163 17.7374 12.5163 17.7374C12.5163 17.7374 20.2983 17.7374 22.2393 17.2174C22.7666 17.0756 23.2474 16.7977 23.6335 16.4116C24.0196 16.0255 24.2975 15.5447 24.4393 15.0174C25.1326 11.0538 25.1326 6.99998 24.4393 3.03641Z" fill="#EC2224"/>
<path d="M10.0254 12.7609L16.4914 9.02792L10.0254 5.29492V12.7609Z" fill="white"/>
<path d="M36.1955 16.1655C35.673 15.7899 35.3009 15.2409 35.1455 14.6165C34.9128 13.704 34.8082 12.7637 34.8345 11.8224V10.2385C34.8048 9.28233 34.9249 8.32742 35.1905 7.40845C35.3696 6.7763 35.7627 6.22599 36.3025 5.85147C36.9029 5.49973 37.5924 5.32951 38.2875 5.36145C38.9699 5.32811 39.6463 5.50244 40.2275 5.86145C40.7496 6.24453 41.1261 6.79349 41.2955 7.41845C41.548 8.33671 41.662 9.28755 41.6335 10.2395V11.8235C41.6607 12.7679 41.5495 13.7112 41.3035 14.6234C41.1412 15.2492 40.7634 15.7978 40.2365 16.1725C39.6116 16.4953 38.9182 16.663 38.2149 16.6614C37.5116 16.6599 36.8189 16.4891 36.1955 16.1635M38.9545 14.4545C39.1189 13.8885 39.1882 13.2991 39.1595 12.7104V9.31045C39.1864 8.7304 39.1171 8.14991 38.9545 7.59247C38.9123 7.4344 38.8183 7.29501 38.6877 7.19659C38.557 7.09817 38.3971 7.04639 38.2335 7.04947C38.0731 7.04935 37.9172 7.10266 37.7904 7.20099C37.6637 7.29931 37.5733 7.43705 37.5335 7.59247C37.3727 8.15021 37.3051 8.73068 37.3335 9.31045V12.7104C37.3075 13.2987 37.375 13.8874 37.5335 14.4545C37.5747 14.6107 37.6674 14.7484 37.7966 14.8453C37.9259 14.9422 38.084 14.9927 38.2455 14.9885C38.408 14.9922 38.567 14.9418 38.6976 14.8451C38.8281 14.7484 38.9228 14.6109 38.9665 14.4545" fill="#282928"/>
<path d="M74.0009 11.8489V12.4009C73.993 12.9266 74.0137 13.4524 74.0629 13.9759C74.0767 14.2498 74.166 14.5146 74.321 14.7409C74.396 14.8241 74.489 14.8891 74.593 14.9309C74.697 14.9727 74.8092 14.9901 74.9209 14.9819C75.0754 14.9963 75.2307 14.9631 75.3658 14.8868C75.5009 14.8105 75.6095 14.6946 75.6769 14.5549C75.8432 14.0992 75.9189 13.6156 75.8999 13.1309L78.0179 13.2549C78.0317 13.3851 78.0377 13.516 78.0359 13.6469C78.0682 14.061 78.011 14.4771 77.8681 14.8671C77.7253 15.2571 77.5001 15.6117 77.2079 15.9069C76.5497 16.4415 75.7142 16.7086 74.8679 16.6549C74.3808 16.7053 73.889 16.6265 73.442 16.4264C72.9951 16.2262 72.6087 15.9119 72.3219 15.5149C71.7605 14.4292 71.508 13.2102 71.5919 11.9909V10.0909C71.5007 8.84806 71.7631 7.60479 72.3489 6.50489C72.6473 6.10997 73.0423 5.79846 73.4959 5.60038C73.9495 5.4023 74.4465 5.3243 74.9389 5.37388C75.6172 5.3324 76.2925 5.49358 76.8789 5.83689C77.3587 6.18802 77.6966 6.69973 77.8309 7.27891C78.0408 8.16464 78.1336 9.07404 78.1069 9.9839V11.8529L74.0009 11.8489ZM74.3119 7.25691C74.1619 7.48167 74.0758 7.74297 74.0629 8.01289C74.0135 8.54238 73.9928 9.07418 74.0009 9.60591V10.3899H75.8009V9.60591C75.809 9.07397 75.7854 8.542 75.7299 8.01289C75.7137 7.73945 75.6246 7.47534 75.4719 7.24791C75.3982 7.16987 75.308 7.10939 75.2077 7.07096C75.1075 7.03254 74.9999 7.01713 74.8929 7.02589C74.7853 7.0172 74.6771 7.03355 74.5768 7.07362C74.4766 7.11369 74.3869 7.17643 74.3149 7.25691" fill="#282928"/>
<path d="M30.212 11.6447L27.418 1.55273H29.856L30.835 6.12674C31.0843 7.25474 31.2683 8.21608 31.387 9.01074H31.458C31.5413 8.44074 31.7253 7.48541 32.01 6.14474L33.025 1.55273H35.463L32.633 11.6447V16.4857H30.212V11.6447Z" fill="#282928"/>
<path d="M49.5635 5.57632V16.4863H47.6415L47.4274 15.1513H47.3745C47.1768 15.6078 46.848 15.9953 46.4298 16.2647C46.0116 16.5341 45.5228 16.6732 45.0255 16.6643C44.7207 16.6875 44.4149 16.6345 44.1356 16.5103C43.8563 16.386 43.6123 16.1942 43.4255 15.9523C43.0303 15.2811 42.8503 14.5049 42.9095 13.7283V5.57632H45.3655V13.5853C45.3423 13.9398 45.3969 14.2951 45.5255 14.6263C45.5734 14.7255 45.6497 14.8082 45.7449 14.8638C45.84 14.9193 45.9495 14.9453 46.0595 14.9383C46.2797 14.9354 46.4938 14.8656 46.6734 14.7383C46.8624 14.6154 47.0134 14.4423 47.1094 14.2383V5.57031L49.5635 5.57632Z" fill="#282928"/>
<path d="M62.1639 5.57632V16.4863H60.2419L60.0279 15.1513H59.9749C59.777 15.6078 59.448 15.9953 59.0297 16.2646C58.6113 16.534 58.1224 16.6731 57.6249 16.6643C57.3201 16.6875 57.0143 16.6345 56.7351 16.5103C56.4558 16.386 56.2118 16.1942 56.0249 15.9523C55.6302 15.2809 55.4502 14.5049 55.5089 13.7283V5.57632H57.9659V13.5853C57.9427 13.9398 57.9974 14.2951 58.1259 14.6263C58.1737 14.7256 58.2501 14.8084 58.3452 14.864C58.4404 14.9195 58.55 14.9454 58.6599 14.9383C58.8801 14.9353 59.0942 14.8655 59.2739 14.7383C59.4626 14.6151 59.6136 14.4421 59.7099 14.2383V5.57031L62.1639 5.57632Z" fill="#282928"/>
<path d="M56.2389 3.52774H53.8009V16.4857H51.4009V3.52774H48.9629V1.55273H56.2429L56.2389 3.52774Z" fill="#282928"/>
<path d="M70.2925 7.319C70.2088 6.75925 69.9574 6.23802 69.5715 5.82401C69.192 5.49823 68.7009 5.33226 68.2015 5.36099C67.7516 5.36092 67.3117 5.49419 66.9375 5.74399C66.5516 5.99318 66.2384 6.33987 66.0295 6.74899H66.0115V1H63.6445V16.485H65.6725L65.9225 15.453H65.9756C66.1672 15.8221 66.4645 16.1257 66.8295 16.325C67.2158 16.5398 67.6515 16.6501 68.0935 16.645C68.4787 16.6583 68.8591 16.5561 69.1857 16.3515C69.5124 16.147 69.7704 15.8494 69.9265 15.497C70.3866 14.3602 70.5875 13.1352 70.5146 11.911V10.184C70.5364 9.22393 70.4617 8.26412 70.2915 7.319M68.0405 11.769C68.0494 12.3936 68.016 13.018 67.9406 13.638C67.9145 13.9813 67.8009 14.3121 67.6105 14.599C67.5364 14.6918 67.4415 14.766 67.3334 14.8155C67.2254 14.865 67.1073 14.8884 66.9886 14.884C66.7925 14.8857 66.5992 14.8368 66.4276 14.742C66.2504 14.6419 66.1054 14.4935 66.0096 14.314V8.12C66.081 7.8419 66.229 7.58937 66.4366 7.39099C66.61 7.21281 66.8469 7.11037 67.0956 7.10599C67.2089 7.10148 67.3215 7.12605 67.4226 7.17734C67.5238 7.22862 67.6102 7.30491 67.6736 7.39899C67.8427 7.70225 67.9402 8.04023 67.9585 8.38699C68.0203 9.04377 68.047 9.70339 68.0385 10.363L68.0405 11.769Z" fill="#282928"/>
</svg>
